<svg id="Слой_2" data-name="Слой 2" xmlns="http://www.w3.org/2000/svg" viewBox="0 0 202.11 201.69"><defs><style>.cls-1{fill:#2f4351;}.cls-2{fill:#fff;}</style></defs><title>logo_1</title><polygon class="cls-1" points="180.32 111.04 172.36 105.91 165.22 109.57 166.61 112.27 172.19 109.41 180.32 114.66 180.32 111.04"/><polygon class="cls-1" points="20.55 111.04 28.5 105.91 35.64 109.57 34.26 112.27 28.67 109.41 20.55 114.66 20.55 111.04"/><polygon class="cls-1" points="180.32 88.53 172.19 93.78 166.61 90.92 165.22 93.62 172.36 97.28 180.32 92.15 180.32 88.53"/><rect class="cls-1" x="148.79" y="69.71" width="2.5" height="12.52" transform="translate(-19.06 138.39) rotate(-59.04)"/><rect class="cls-1" x="161.02" y="61.81" width="2.5" height="25.02" transform="translate(-11.71 148.08) rotate(-59.04)"/><polygon class="cls-1" points="123.73 29.82 123.73 33.33 123.73 33.33 149.74 48.35 149.74 54.62 152.78 54.62 152.78 46.59 123.73 29.82 123.73 29.82"/><polygon class="cls-1" points="77.84 29.82 77.84 33.33 77.84 33.33 51.83 48.35 51.83 54.62 48.79 54.62 48.79 46.59 77.84 29.82 77.84 29.82"/><circle class="cls-1" cx="75.58" cy="44.58" r="3.85"/><polygon class="cls-1" points="99.43 179.37 86.64 172.13 81.53 175.81 54.66 159.28 55.96 157.15 81.42 172.81 86.48 169.16 100.66 177.19 99.43 179.37"/><polygon class="cls-1" points="102.2 179.37 100.97 177.19 115.14 169.16 120.2 172.81 145.66 157.15 146.97 159.28 120.09 175.81 114.98 172.13 102.2 179.37"/><polygon class="cls-1" points="81.8 168.58 81.8 174.63 87.04 177.65 92.28 174.63 92.28 168.58 87.04 165.56 81.8 168.58"/><polygon class="cls-1" points="110.13 168.58 110.13 174.63 115.37 177.65 120.6 174.63 120.6 168.58 115.37 165.56 110.13 168.58"/><polygon class="cls-1" points="95.33 175.26 95.33 181.3 100.56 184.33 105.8 181.3 105.8 175.26 100.56 172.24 95.33 175.26"/><polygon class="cls-1" points="70.68 154.79 70.68 161.63 76.61 165.05 82.53 161.63 82.53 154.79 76.61 151.37 70.68 154.79"/><polygon class="cls-1" points="118.88 154.79 118.88 161.63 124.8 165.05 130.72 161.63 130.72 154.79 124.8 151.37 118.88 154.79"/><rect class="cls-1" x="4.8" y="99.59" width="192.5" height="2.5"/><circle class="cls-1" cx="4.8" cy="100.84" r="4.8"/><circle class="cls-1" cx="197.31" cy="100.84" r="4.8"/><path class="cls-1" d="M205.69,171.5a2.35,2.35,0,0,1-1.17,2L129.17,217a2.33,2.33,0,0,1-2.34,0l-75.35-43.5a2.34,2.34,0,0,1-1.17-2V133.75H38.81V171.5a13.88,13.88,0,0,0,6.92,12L121.08,227a13.87,13.87,0,0,0,13.84,0l75.35-43.5a13.88,13.88,0,0,0,6.92-12V133.75h-11.5Z" transform="translate(-26.77 -27.16)"/><path class="cls-1" d="M50.31,84.5a2.34,2.34,0,0,1,1.17-2L126.83,39a2.33,2.33,0,0,1,2.34,0l75.35,43.5a2.34,2.34,0,0,1,1.17,2v37.75h11.5V84.5a13.88,13.88,0,0,0-6.92-12L134.92,29a13.85,13.85,0,0,0-13.84,0L45.73,72.51h0a13.88,13.88,0,0,0-6.92,12v37.75h11.5Z" transform="translate(-26.77 -27.16)"/><polygon class="cls-1" points="96.64 21.34 96.64 26.64 101.23 29.29 105.83 26.64 105.83 21.34 101.23 18.68 96.64 21.34"/><polygon class="cls-1" points="96.64 40.09 96.64 45.4 101.23 48.05 105.83 45.4 105.83 40.09 101.23 37.44 96.64 40.09"/><polygon class="cls-1" points="81.45 30.72 81.45 36.02 86.04 38.67 90.64 36.02 90.64 30.72 86.04 28.06 81.45 30.72"/><path class="cls-1" d="M143.19,57.53l2.59,1.5v3l-2.59,1.5-2.6-1.5V59l2.6-1.5m0-2.31-4.6,2.65v5.31l4.6,2.65,4.59-2.65V57.87l-4.59-2.65Z" transform="translate(-26.77 -27.16)"/><circle class="cls-1" cx="116.42" cy="44.58" r="3.85"/><polygon class="cls-1" points="101.23 22.15 85.14 31.44 83.98 32.11 83.98 35.1 85.14 35.77 101.23 45.05 101.23 42.17 86.39 33.6 101.23 25.04 101.23 22.15"/><polygon class="cls-1" points="112.89 31.33 115.01 30.11 101.23 22.15 101.23 25.04 112.89 31.77 112.89 31.33"/><polygon class="cls-1" points="112.92 35.42 101.23 42.17 101.23 45.05 115.42 36.86 112.92 35.42"/><circle class="cls-2" cx="183.51" cy="73.98" r="2.37"/><circle class="cls-2" cx="183.51" cy="88.53" r="2.37"/><circle class="cls-2" cx="183.51" cy="116.29" r="2.37"/><circle class="cls-2" cx="18.18" cy="73.98" r="2.37"/><circle class="cls-2" cx="18.18" cy="88.53" r="2.37"/><circle class="cls-2" cx="18.18" cy="116.29" r="2.37"/><circle class="cls-2" cx="18.18" cy="130.85" r="2.37"/><circle class="cls-2" cx="183.51" cy="139.06" r="2.37"/><path class="cls-2" d="M176.73,80.44a16.2,16.2,0,0,1,16.21,16.2v68.45a16.21,16.21,0,0,1-16.21,16.21H142.07a16.21,16.21,0,0,1-16.21-16.21V96.64a16.2,16.2,0,0,1,16.21-16.2h34.66m0-2.5H142.07a18.72,18.72,0,0,0-18.71,18.7v68.45a18.73,18.73,0,0,0,18.71,18.71h34.66a18.73,18.73,0,0,0,18.71-18.71V96.64a18.72,18.72,0,0,0-18.71-18.7Z" transform="translate(-26.77 -27.16)"/><path class="cls-1" d="M200,103.91h-7a1.87,1.87,0,0,0-1.87,1.87V112a1.87,1.87,0,0,0,1.87,1.87h7a1.87,1.87,0,0,0,1.87-1.87v-6.23A1.87,1.87,0,0,0,200,103.91ZM195,111.37h-2.08v-4.93H195Zm4,0h-2.08v-4.93H199Z" transform="translate(-26.77 -27.16)"/><rect class="cls-1" x="99.09" y="53.28" width="67.07" height="100.86" rx="16.21"/><path class="cls-1" d="M177,87.85H120.46V79.57a5.83,5.83,0,0,0-5.83-5.84H74.23a5.83,5.83,0,0,0-5.84,5.84v8.28H68A9.13,9.13,0,0,0,58.85,97v69.53a9.12,9.12,0,0,0,9.1,9.12,9.81,9.81,0,0,0,9.81,9.74H176.3a9.82,9.82,0,0,0,9.82-9.82V97A9.13,9.13,0,0,0,177,87.85Z" transform="translate(-26.77 -27.16)"/><path class="cls-2" d="M114.63,73.73a5.83,5.83,0,0,1,5.83,5.84v8.28H177A9.13,9.13,0,0,1,186.12,97v78.57a9.82,9.82,0,0,1-9.82,9.82H77.76A9.81,9.81,0,0,1,68,175.63a9.12,9.12,0,0,1-9.1-9.12V97A9.13,9.13,0,0,1,68,87.85h.41V79.57a5.83,5.83,0,0,1,5.84-5.84h40.4m0-2.5H74.23a8.35,8.35,0,0,0-8.34,8.34v6A11.65,11.65,0,0,0,56.35,97v69.53a11.65,11.65,0,0,0,9.33,11.39,12.35,12.35,0,0,0,12.08,10H176.3a12.34,12.34,0,0,0,12.32-12.32V97A11.65,11.65,0,0,0,177,85.35H123V79.57a8.35,8.35,0,0,0-8.33-8.34Z" transform="translate(-26.77 -27.16)"/><path class="cls-1" d="M59.41,149.88a11.83,11.83,0,0,0-3.46.38c-.9.42-2.47,1.28-2.47,1.58v4.43a7.69,7.69,0,0,0,2.87,2.47,4.36,4.36,0,0,0,3.24,0Z" transform="translate(-26.77 -27.16)"/><path class="cls-1" d="M59.41,112.88A11.83,11.83,0,0,1,56,112.5c-.9-.42-2.47-1.28-2.47-1.58v-4.43A7.78,7.78,0,0,1,56.35,104a4.36,4.36,0,0,1,3.24,0Z" transform="translate(-26.77 -27.16)"/><path class="cls-1" d="M200,151.89h-7a1.87,1.87,0,0,0-1.87,1.87V160a1.87,1.87,0,0,0,1.87,1.87h7a1.87,1.87,0,0,0,1.87-1.87v-6.23A1.87,1.87,0,0,0,200,151.89ZM195,159.35h-2.08v-4.92H195Zm4,0h-2.08v-4.92H199Z" transform="translate(-26.77 -27.16)"/><path class="cls-2" d="M116.52,117.44V138h-4V117.44a2.43,2.43,0,0,0-2.4-2.42H82.55a6.44,6.44,0,0,1-6.22-6.43V95h4v13.61A2.42,2.42,0,0,0,82.72,111h27.57A6.44,6.44,0,0,1,116.52,117.44Z" transform="translate(-26.77 -27.16)"/><rect class="cls-2" x="30.85" y="68.97" width="12.13" height="2.5"/><rect class="cls-2" x="30.85" y="74.14" width="12.13" height="2.5"/><path class="cls-2" d="M71.48,95v10.87a1.49,1.49,0,1,0,3,0V95Z" transform="translate(-26.77 -27.16)"/><path class="cls-2" d="M112.52,144.94v12.12a3,3,0,0,1-3,3H57.46v4h52.09a7,7,0,0,0,7-7V144.94Z" transform="translate(-26.77 -27.16)"/><path class="cls-2" d="M111.84,170.13H99.08a1,1,0,1,1,0-2h12.76a1,1,0,1,1,0,2Z" transform="translate(-26.77 -27.16)"/><path class="cls-2" d="M111.84,174.79H99.08a1,1,0,0,1,0-2h12.76a1,1,0,0,1,0,2Z" transform="translate(-26.77 -27.16)"/><path class="cls-2" d="M79.28,169.35v8.38H94.69v-8.38Zm6.19,5.32-2.68,1.55a.48.48,0,0,1-.71-.42v-3.09a.48.48,0,0,1,.71-.42l2.68,1.55A.48.48,0,0,1,85.47,174.67Z" transform="translate(-26.77 -27.16)"/><path class="cls-2" d="M78,149.93h-.78a2,2,0,0,1-2-2v-3h-4v3a6,6,0,0,0,6,6H78Z" transform="translate(-26.77 -27.16)"/><path class="cls-2" d="M100.6,144.94v3a2,2,0,0,1-2,2H85v4H98.62a6,6,0,0,0,6-6v-3Z" transform="translate(-26.77 -27.16)"/><rect class="cls-2" x="53.46" y="121.54" width="2.68" height="6.3"/><path class="cls-2" d="M128.44,163.71h-1.11v-37h.86a1.27,1.27,0,0,0,1.27-1.27v-1.24h-7v1.24a1.27,1.27,0,0,0,1.28,1.27h1.07v13.69H104.71V127.89a6.37,6.37,0,0,0-6.36-6.36H68.77a6.4,6.4,0,0,0-2.36.46V106.47h-4v51.29h4v-15h0V127.89a2.36,2.36,0,0,1,2.36-2.36H98.35a2.36,2.36,0,0,1,2.36,2.36v3.66H77.19a6,6,0,0,0-6,6v5.21h4v-5.21a2,2,0,0,1,2-2h23.52v7.18h0v.2h24.12v20.78H124a1.27,1.27,0,0,0-1.28,1.27v1.24h7V165A1.27,1.27,0,0,0,128.44,163.71Z" transform="translate(-26.77 -27.16)"/><path class="cls-2" d="M175.16,93.21H145.41A4.4,4.4,0,0,0,141,97.6v19.26a4.39,4.39,0,0,0,4.39,4.39h29.75a4.39,4.39,0,0,0,4.39-4.39V97.6A4.4,4.4,0,0,0,175.16,93.21Zm-28.9,3.58h17.31a1.5,1.5,0,0,1,0,3H146.26a1.5,1.5,0,0,1,0-3Zm28,20.75h-28a1.5,1.5,0,0,1,0-3h28a1.5,1.5,0,0,1,0,3Zm0-17.75h-5.37a1.5,1.5,0,0,1,0-3h5.37a1.5,1.5,0,0,1,0,3Z" transform="translate(-26.77 -27.16)"/><path class="cls-2" d="M176.29,129.08H143.83a3.12,3.12,0,0,0-3.12,3.13v42.44a3.12,3.12,0,0,0,3.12,3.13h32.46a3.13,3.13,0,0,0,3.13-3.13V132.21A3.13,3.13,0,0,0,176.29,129.08ZM150.72,172.4a.84.84,0,0,1-.84.83h-4a.84.84,0,0,1-.84-.83v-3.64a.84.84,0,0,1,.84-.84h4a.84.84,0,0,1,.84.84Zm0-8.71a.84.84,0,0,1-.84.83h-4a.84.84,0,0,1-.84-.83V160a.84.84,0,0,1,.84-.83h4a.84.84,0,0,1,.84.83Zm0-8.72a.85.85,0,0,1-.84.84h-4A.85.85,0,0,1,145,155v-3.64a.85.85,0,0,1,.84-.84h4a.85.85,0,0,1,.84.84Zm0-8.71a.84.84,0,0,1-.84.83h-4a.84.84,0,0,1-.84-.83v-3.65a.84.84,0,0,1,.84-.83h4a.84.84,0,0,1,.84.83Zm0-8.72a.85.85,0,0,1-.84.84h-4a.85.85,0,0,1-.84-.84V133.9a.85.85,0,0,1,.84-.84h4a.85.85,0,0,1,.84.84Zm8.19,34.86a.84.84,0,0,1-.84.83h-4a.83.83,0,0,1-.84-.83v-3.64a.83.83,0,0,1,.84-.84h4a.84.84,0,0,1,.84.84Zm0-8.71a.84.84,0,0,1-.84.83h-4a.83.83,0,0,1-.84-.83V160a.83.83,0,0,1,.84-.83h4a.84.84,0,0,1,.84.83Zm0-8.72a.85.85,0,0,1-.84.84h-4a.84.84,0,0,1-.84-.84v-3.64a.84.84,0,0,1,.84-.84h4a.85.85,0,0,1,.84.84Zm0-8.71a.84.84,0,0,1-.84.83h-4a.83.83,0,0,1-.84-.83v-3.65a.83.83,0,0,1,.84-.83h4a.84.84,0,0,1,.84.83Zm0-8.72a.85.85,0,0,1-.84.84h-4a.84.84,0,0,1-.84-.84V133.9a.84.84,0,0,1,.84-.84h4a.85.85,0,0,1,.84.84Zm8.18,34.86a.83.83,0,0,1-.83.83h-4a.83.83,0,0,1-.83-.83v-3.64a.83.83,0,0,1,.83-.84h4a.83.83,0,0,1,.83.84Zm0-8.71a.83.83,0,0,1-.83.83h-4a.83.83,0,0,1-.83-.83V160a.83.83,0,0,1,.83-.83h4a.83.83,0,0,1,.83.83Zm0-8.72a.84.84,0,0,1-.83.84h-4a.84.84,0,0,1-.83-.84v-3.64a.84.84,0,0,1,.83-.84h4a.84.84,0,0,1,.83.84Zm0-8.71a.83.83,0,0,1-.83.83h-4a.83.83,0,0,1-.83-.83v-3.65a.83.83,0,0,1,.83-.83h4a.83.83,0,0,1,.83.83Zm0-8.72a.84.84,0,0,1-.83.84h-4a.84.84,0,0,1-.83-.84V133.9a.84.84,0,0,1,.83-.84h4a.84.84,0,0,1,.83.84Zm8.19,34.86a.83.83,0,0,1-.83.83h-4a.83.83,0,0,1-.83-.83v-3.64a.83.83,0,0,1,.83-.84h4a.83.83,0,0,1,.83.84Zm0-8.71a.83.83,0,0,1-.83.83h-4a.83.83,0,0,1-.83-.83V160a.83.83,0,0,1,.83-.83h4a.83.83,0,0,1,.83.83Zm0-8.72a.84.84,0,0,1-.83.84h-4a.84.84,0,0,1-.83-.84v-3.64a.84.84,0,0,1,.83-.84h4a.84.84,0,0,1,.83.84Zm0-8.71a.83.83,0,0,1-.83.83h-4a.83.83,0,0,1-.83-.83v-3.65a.83.83,0,0,1,.83-.83h4a.83.83,0,0,1,.83.83Zm0-8.72a.84.84,0,0,1-.83.84h-4a.84.84,0,0,1-.83-.84V133.9a.84.84,0,0,1,.83-.84h4a.84.84,0,0,1,.83.84Z" transform="translate(-26.77 -27.16)"/><circle class="cls-2" cx="99.2" cy="71.87" r="2.11"/><path class="cls-2" d="M131,111.77v-1.86a3,3,0,0,0-3-3h-.81V102h-2.49v4.9h-.81a3,3,0,0,0-3,3v9.74a3,3,0,0,0,3,3H128a3,3,0,0,0,3-3v-5.38a1.79,1.79,0,0,1,1.49,1.77v32.35a1.25,1.25,0,0,0,2.5,0V116A4.29,4.29,0,0,0,131,111.77Zm-2,7.88a1,1,0,0,1-1,1h-4.11a1,1,0,0,1-1-1v-1.74H129Zm0-3.61h-6.06v-2.75H129Zm0-4.61h-6.06v-1.52a1,1,0,0,1,1-1H128a1,1,0,0,1,1,1Z" transform="translate(-26.77 -27.16)"/><path class="cls-2" d="M116.55,86.89V83a5.72,5.72,0,0,0-5.71-5.72h-33A5.73,5.73,0,0,0,72.14,83v4.18h-.66v5.56h8.85V89.32a2.42,2.42,0,0,1,2.42-2.43h20.19v16h15.39v-16Zm-33.8-4a6.43,6.43,0,0,0-6.06,4.33h-2V83a3.22,3.22,0,0,1,3.22-3.22h33A3.22,3.22,0,0,1,114.05,83v3.85h-3.76v-4Zm33.77,18.25H104.71V86.89h1.5V99h8.85V86.89h1.46Z" transform="translate(-26.77 -27.16)"/><polygon class="cls-2" points="69.47 69.31 66 69.31 66 64.98 58.67 64.98 58.67 69.31 55.01 69.31 55.01 74.83 58.67 74.83 58.67 79.16 66 79.16 66 74.83 69.47 74.83 69.47 69.31"/><rect class="cls-2" x="94.91" y="140.3" width="9.09" height="22.83" rx="2.75"/><path class="cls-2" d="M126.9,197.85,131.62,187a.73.73,0,0,0-.67-1H121.5a.74.74,0,0,0-.68,1l4.73,10.85A.74.74,0,0,0,126.9,197.85Z" transform="translate(-26.77 -27.16)"/><path class="cls-1" d="M126.46,193.68l1.65-3.79a.26.26,0,0,0-.24-.36h-3.3a.25.25,0,0,0-.23.36l1.65,3.79A.26.26,0,0,0,126.46,193.68Z" transform="translate(-26.77 -27.16)"/><rect class="cls-1" x="96.59" y="142.33" width="5.72" height="18.71" rx="1.97"/><rect class="cls-2" x="125.22" y="177.06" width="2" height="8.54" transform="translate(-121.48 152.67) rotate(-54.77)"/><path class="cls-2" d="M58.85,159.84v-2.33a.82.82,0,0,1,.82-.81H61v-2.5H59.67a3.32,3.32,0,0,0-3.32,3.31v2.33Z" transform="translate(-26.77 -27.16)"/><path class="cls-2" d="M58.85,102.92v2.33a.82.82,0,0,0,.82.81H61v2.5H59.67a3.32,3.32,0,0,1-3.32-3.31v-2.33Z" transform="translate(-26.77 -27.16)"/><polygon class="cls-1" points="78.76 68.55 83.31 65.81 88.67 68.2 88.67 69.31 83.37 68.33 78.76 69.42 78.76 68.55"/></svg>